# xmcd
#
# Track frame offsets: 
#        198
#        13785
#        27003
#        48057
#        66525
#        84513
#        105026
#        119871
#        140467
#        151959
#        164223
#        180893
#        199347
#        216980
#        238605
#        252657
#        273741
#
# Disc length: 3874 seconds
#
# Revision: 0
# Processed by: cddbd v1.4PL0 Copyright (c) Steve Scherf et al.
# Submitted via: ExactAudioCopy v0.90b4
#
DISCID=f70f2011
DTITLE=Champagne Charlie - Volle Maan
DYEAR=2001
DGENRE=
TTITLE0=Internet Blues
TTITLE1=Gokverslaafd
TTITLE2=Volle Maan
TTITLE3=De Mexicaanse Hond
TTITLE4=Gehaktbal
TTITLE5=W.O.V. Blues
TTITLE6=Zak en As
TTITLE7=Lowlands Delight
TTITLE8=De Wolf
TTITLE9=Kleren Maken de Man
TTITLE10=Levend Ebbenhout
TTITLE11=Harmonica Blues
TTITLE12=Zydeco Koorts
TTITLE13=Enkele Reis de Blues
TTITLE14=Straatmuziek
TTITLE15=Langzaam Aan
TTITLE16=Waterlanders
EXTD=
EXTT0=
EXTT1=
EXTT2=
EXTT3=
EXTT4=
EXTT5=
EXTT6=
EXTT7=
EXTT8=
EXTT9=
EXTT10=
EXTT11=
EXTT12=
EXTT13=
EXTT14=
EXTT15=
EXTT16=
PLAYORDER=
